<?xml version="1.0" encoding="UTF-8"?>
<svg xmlns="http://www.w3.org/2000/svg" xmlns:xlink="http://www.w3.org/1999/xlink" width="300pt" height="300pt" viewBox="0 0 300 300" version="1.1">
<g id="surface1">
<path style=" stroke:none;fill-rule:nonzero;fill:rgb(0%,0%,0%);fill-opacity:1;" d="M 150.066406 0 C 67.191406 0 0 67.191406 0 150.066406 C 0 232.9375 67.191406 300.132812 150.066406 300.132812 C 232.9375 300.132812 300.128906 232.9375 300.128906 150.066406 C 300.132812 67.191406 232.9375 0 150.066406 0 Z M 229.3125 218.960938 L 217.296875 230.980469 C 215.148438 233.121094 208.867188 234.457031 208.667969 234.457031 C 170.65625 234.789062 134.054688 219.859375 107.164062 192.964844 C 80.199219 165.984375 65.253906 129.257812 65.652344 91.117188 C 65.652344 91.097656 67.027344 84.996094 69.171875 82.875 L 81.1875 70.859375 C 85.585938 66.441406 94.03125 64.445312 99.945312 66.425781 L 102.472656 67.265625 C 108.371094 69.246094 114.566406 75.769531 116.195312 81.777344 L 122.242188 103.960938 C 123.871094 109.984375 121.671875 118.558594 117.277344 122.957031 L 109.253906 130.980469 C 117.128906 160.140625 140.011719 183.023438 169.175781 190.921875 L 177.195312 182.894531 C 181.613281 178.476562 190.183594 176.28125 196.195312 177.910156 L 218.375 183.972656 C 224.386719 185.625 230.90625 191.78125 232.882812 197.675781 L 233.726562 200.242188 C 235.6875 206.140625 233.707031 214.585938 229.3125 218.960938 Z M 229.3125 218.960938 "/>
</g>
</svg>
